<?xml version="1.0" encoding="UTF-8" standalone="no"?><!DOCTYPE svg PUBLIC "-//W3C//DTD SVG 1.1//EN" "http://www.w3.org/Graphics/SVG/1.1/DTD/svg11.dtd"><svg width="100%" height="100%" viewBox="0 0 1137 188" version="1.1" xmlns="http://www.w3.org/2000/svg" xmlns:xlink="http://www.w3.org/1999/xlink" xml:space="preserve" xmlns:serif="http://www.serif.com/" style="fill-rule:evenodd;clip-rule:evenodd;stroke-linejoin:round;stroke-miterlimit:2;"><g id="enverus-openinvoice-black"><g id="Group"><path id="Fill-1" d="M242.627,175.048l0,-159.185l34.752,0l67.261,100.892l1.121,0l0,-100.892l32.51,0l0,159.185l-32.51,0l-70.624,-103.134l0,103.134l-32.51,0Z" style="fill:#131415;"/><path id="Fill-2" d="M453.38,175.048l-54.93,-159.185l35.872,0l36.994,113.223l38.115,-113.223l33.631,0l-56.052,159.185l-33.63,0Z" style="fill:#131415;"/><path id="Fill-3" d="M563.24,175.048l0,-159.185l108.739,0l0,29.147l-73.987,0l0,33.63l71.745,0l0,28.026l-71.745,0l0,39.236l78.471,0l0,29.146l-113.223,0Z" style="fill:#131415;"/><path id="Fill-4" d="M734.757,87.609l24.662,0c5.605,0 10.089,0 13.452,-1.121c3.363,-1.121 6.727,-2.242 8.969,-3.364c2.242,-2.242 4.484,-4.484 5.605,-6.726c1.121,-2.242 2.242,-6.726 2.242,-10.089c0,-7.847 -2.242,-13.452 -7.847,-16.815c-4.485,-3.363 -12.332,-4.484 -22.421,-4.484l-24.662,0l0,42.599Zm-34.752,87.439l0,-159.185l60.535,0c10.089,0 19.058,1.121 26.905,2.242c7.847,2.242 14.573,4.484 20.178,8.968c5.605,4.484 10.089,8.968 12.331,15.695c3.363,6.726 4.484,13.452 4.484,22.42c0,6.726 -1.121,12.331 -2.242,16.815c-2.242,4.485 -4.484,8.969 -6.726,12.332c-3.363,3.363 -6.726,6.726 -10.089,8.968c-4.484,2.242 -8.968,4.484 -14.573,6.726l35.872,65.019l-36.993,0l-33.631,-60.535l-20.178,0l0,60.535l-35.873,0Z" style="fill:#131415;"/><path id="Fill-6" d="M911.878,177.29c-11.21,0 -21.299,-1.121 -29.146,-4.484c-7.847,-3.363 -14.574,-6.726 -20.179,-12.331c-5.605,-5.605 -8.968,-12.331 -12.331,-20.178c-2.242,-7.847 -3.363,-16.816 -3.363,-26.905l0,-97.529l35.873,0l0,97.529c0,5.605 1.121,11.21 2.242,15.694c1.121,4.485 3.363,7.848 5.605,11.211c2.242,3.363 5.605,5.605 8.968,6.726c3.363,1.121 7.847,2.242 13.452,2.242c10.09,0 17.937,-3.363 22.421,-8.968c3.363,-6.726 5.605,-15.695 5.605,-26.905l0,-97.529l34.752,0l0,97.529c0,10.089 -1.121,19.058 -3.363,26.905c-2.242,7.847 -6.727,14.573 -12.332,20.178c-5.605,5.605 -12.331,10.089 -20.178,12.331c-7.847,3.363 -16.815,4.484 -28.026,4.484" style="fill:#131415;"/><path id="Fill-8" d="M1063.22,177.29c-8.968,0 -16.815,-1.121 -23.541,-3.363c-6.726,-2.242 -13.452,-4.484 -19.057,-7.847c-5.606,-3.363 -10.09,-7.847 -14.574,-12.331c-4.484,-4.484 -7.847,-10.089 -11.21,-15.694l26.905,-15.695c2.242,4.484 4.484,7.847 7.847,11.211c3.363,3.363 6.726,6.726 10.089,8.968c3.363,2.242 7.847,4.484 12.331,5.605c4.484,1.121 8.968,2.242 13.453,2.242c4.484,0 7.847,0 11.21,-1.121c3.363,-1.121 6.726,-2.242 8.968,-3.363c2.242,-1.121 4.484,-3.363 5.605,-5.605c1.121,-2.242 2.242,-4.484 2.242,-7.847c0,-3.364 -1.121,-5.606 -2.242,-7.848c-1.121,-2.242 -3.363,-4.484 -6.726,-5.605c-2.242,-2.242 -5.605,-3.363 -10.089,-4.484c-4.484,-1.121 -8.968,-3.363 -13.453,-4.484c-4.484,-1.121 -10.089,-2.242 -14.573,-4.484c-4.484,-1.121 -8.968,-3.363 -13.452,-4.484c-4.484,-2.242 -7.847,-3.363 -12.331,-5.605c-3.364,-2.242 -6.727,-4.484 -10.09,-7.847c-2.242,-3.363 -4.484,-6.727 -6.726,-11.211c-1.121,-4.484 -2.242,-8.968 -2.242,-14.573c0,-7.847 1.121,-14.573 4.484,-20.178c2.242,-5.606 6.726,-11.211 12.332,-14.574c5.605,-4.484 11.21,-6.726 17.936,-8.968c7.847,-4.484 15.694,-5.605 23.541,-5.605c7.848,0 15.695,1.121 22.421,2.242c6.726,2.242 12.331,4.484 17.936,6.726c5.605,3.363 10.089,6.726 13.453,10.089c3.363,3.363 6.726,7.848 10.089,12.332l-24.663,17.936c-2.242,-3.363 -4.484,-6.726 -7.847,-8.968c-3.363,-2.242 -5.605,-5.605 -10.089,-6.726c-3.363,-2.242 -6.726,-3.363 -11.21,-4.484c-3.363,-1.121 -7.848,-1.121 -11.211,-1.121c-7.847,0 -13.452,1.121 -16.815,4.484c-4.484,3.363 -5.605,6.726 -5.605,11.21c0,3.363 1.121,5.605 2.242,7.847c1.121,2.242 3.363,4.484 6.726,5.605c3.363,2.242 6.726,3.363 10.089,4.484c4.484,1.121 8.968,2.242 13.453,4.484c4.484,1.121 8.968,2.242 14.573,4.484c4.484,1.122 8.968,3.364 13.452,4.485c4.484,2.242 7.847,4.484 12.331,6.726c3.363,2.242 6.727,5.605 10.09,7.847c2.242,3.363 4.484,6.726 6.726,11.21c1.121,4.484 2.242,8.968 2.242,14.573c0,6.727 -1.121,12.332 -3.363,17.937c-2.242,5.605 -6.726,11.21 -11.21,15.694c-5.606,4.484 -12.332,7.847 -20.179,11.21c-8.968,3.363 -19.057,4.484 -30.268,4.484" style="fill:#131415;"/><path id="Fill-11" d="M211.239,107.787l0,-28.026l-71.746,0l0,-34.751l73.988,0l0,-29.147l-109.861,0l0,131.16l35.873,0l0,-39.236l71.746,0Zm-71.746,67.261l78.472,0l0,-28.025l-78.472,0l0,28.025Z" style="fill:#131415;"/><path id="Fill-13" d="M50.932,175.048l52.688,0l0,-28.025l-52.688,0l0,28.025Z" style="fill:#a0ef6e;"/><path id="Fill-15" d="M8.333,107.787l35.873,0l0,-28.026l-35.873,0l0,28.026Z" style="fill:#a0ef6e;"/><path id="Fill-16" d="M67.748,107.787l143.491,0l0,-28.026l-143.491,0l0,28.026Z" style="fill:#56bc2f;"/></g></g></svg>