<?xml version="1.0" encoding="UTF-8" standalone="no"?><!DOCTYPE svg PUBLIC "-//W3C//DTD SVG 1.1//EN" "http://www.w3.org/Graphics/SVG/1.1/DTD/svg11.dtd"><svg width="100%" height="100%" viewBox="0 0 1137 188" version="1.1" xmlns="http://www.w3.org/2000/svg" xmlns:xlink="http://www.w3.org/1999/xlink" xml:space="preserve" xmlns:serif="http://www.serif.com/" style="fill-rule:evenodd;clip-rule:evenodd;stroke-linejoin:round;stroke-miterlimit:2;"><g id="enverus_openinvoice-whitegreen"><g id="Group-18"><path id="Fill-1" d="M239.683,173.47l0,-157.773l35.08,0l67.897,101.02l0,-101.02l32.816,0l0,157.773l-32.816,0l-70.16,-101.02l0,101.02l-32.817,0Z" style="fill:#fff;"/><path id="Fill-2" d="M451.294,174.605l-55.449,-158.908l35.08,0l37.343,113.506l38.475,-113.506l32.816,0l-55.449,158.908l-32.816,0Z" style="fill:#fff;"/><path id="Fill-3" d="M559.928,173.47l0,-157.773l109.766,0l0,29.512l-74.686,0l0,34.051l72.423,0l0,27.242l-72.423,0l0,39.727l78.081,0l0,27.241l-113.161,0Z" style="fill:#fff;"/><g id="Group-17"><path id="Fill-4" d="M731.932,87.621l23.764,0c5.658,0 9.053,0 13.579,-1.135c3.395,-1.135 6.79,-2.27 9.053,-3.405c2.263,-2.27 4.527,-4.541 5.658,-6.811c2.263,-3.405 2.263,-6.81 2.263,-10.215c0,-7.946 -2.263,-13.621 -7.921,-17.026c-4.526,-3.405 -12.447,-4.54 -22.632,-4.54l-23.764,0l0,43.132Zm-33.948,86.264l0,-157.773l59.975,0c10.185,0 19.238,1.135 26.027,2.27c7.922,2.271 14.711,4.541 20.369,9.081c5.658,3.405 9.053,9.08 12.448,14.756c3.395,5.675 4.526,13.62 4.526,22.701c0,6.81 -1.131,11.35 -2.263,17.026c-1.132,4.54 -3.395,9.08 -6.79,12.485c-3.394,3.405 -6.789,6.811 -10.184,9.081c-4.526,2.27 -9.053,4.54 -14.711,6.81l36.211,63.563l-37.343,0l-33.948,-59.023l-20.369,0l0,59.023l-33.948,0Z" style="fill:#fff;"/><path id="Fill-6" d="M908.463,176.155c-11.316,0 -20.369,-1.135 -29.422,-4.54c-7.921,-3.405 -14.711,-6.81 -20.369,-12.485c-5.658,-5.676 -9.053,-12.486 -11.316,-20.431c-2.263,-7.946 -3.395,-17.026 -3.395,-26.107l0,-96.48l35.08,0l0,96.48c0,5.675 0,10.216 2.263,14.756c1.132,4.54 3.395,7.945 5.658,11.351c2.264,3.405 5.658,5.675 9.053,6.81c3.395,2.27 7.922,2.27 13.58,2.27c10.184,0 18.105,-3.405 22.632,-9.08c4.526,-5.676 6.789,-14.756 6.789,-26.107l0,-96.48l35.08,0l0,97.615c0,10.216 -1.131,18.161 -3.395,26.107c-2.263,7.945 -6.789,14.755 -11.316,20.431c-5.658,5.675 -12.447,10.215 -20.369,12.485c-9.052,2.27 -19.237,3.405 -30.553,3.405" style="fill:#fff;"/><path id="Fill-8" d="M1060.94,177.29c-9.053,0 -16.974,-1.135 -23.763,-3.405c-6.79,-2.27 -13.58,-4.54 -19.238,-7.945c-5.658,-3.405 -10.184,-7.946 -14.711,-12.486c-4.526,-4.54 -7.921,-10.215 -11.316,-15.891l27.159,-15.89c2.263,4.54 4.526,7.945 7.921,11.35c3.395,3.405 6.79,5.676 10.185,7.946c3.394,2.27 7.921,4.54 12.447,5.675c4.527,1.135 9.053,2.27 13.58,2.27c4.526,0 7.921,0 11.316,-1.135c3.394,0 5.658,-1.135 7.921,-3.405c2.263,-1.135 4.526,-3.405 5.658,-5.675c1.131,-2.271 2.263,-4.541 2.263,-7.946c0,-3.405 -1.132,-5.675 -2.263,-7.945c-1.132,-1.135 -3.395,-3.405 -5.658,-5.676c-3.395,-1.135 -6.79,-3.405 -10.185,-4.54c-4.526,-1.135 -9.052,-3.405 -14.711,-4.54c-4.526,-1.135 -9.052,-2.27 -13.579,-3.405c-4.526,-2.27 -9.053,-3.405 -13.579,-4.54c-4.527,-2.271 -9.053,-4.541 -12.448,-6.811c-3.395,-2.27 -6.789,-4.54 -10.184,-7.945c-2.263,-3.405 -4.527,-6.811 -5.658,-11.351c-2.263,-3.405 -2.263,-7.945 -2.263,-13.62c0,-7.946 1.131,-14.756 3.394,-20.431c2.264,-5.676 6.79,-10.216 11.316,-14.756c5.658,-4.54 11.316,-6.811 18.106,-9.081c7.921,-2.27 15.843,-3.405 24.895,-3.405c7.922,0 15.843,1.135 22.633,2.27c6.789,2.27 12.447,4.54 16.974,7.946c5.658,3.405 10.184,6.81 13.579,10.215c3.395,3.405 6.79,7.946 10.184,12.486l-23.763,18.161c-2.264,-3.405 -4.527,-6.811 -7.922,-9.081c-3.394,-3.405 -5.658,-5.675 -9.052,-6.81c-3.395,-2.27 -7.922,-3.405 -11.316,-4.54c-3.395,-1.135 -7.922,-1.135 -11.317,-1.135c-7.921,-1.135 -13.579,0 -16.974,3.405c-4.526,3.405 -6.789,6.81 -6.789,11.35c0,3.406 1.131,5.676 2.263,7.946c1.132,2.27 3.395,4.54 6.79,5.675c2.263,2.27 5.658,3.405 10.184,5.675c4.526,1.135 9.053,2.27 13.579,3.406c4.527,1.135 10.185,2.27 14.711,4.54c4.527,1.135 9.053,3.405 13.579,4.54c4.527,2.27 7.922,3.405 11.317,5.675c3.394,2.27 6.789,5.676 10.184,7.946c2.263,3.405 4.526,6.81 6.79,11.35c1.131,4.54 2.263,9.081 2.263,14.756c0,6.81 -1.132,12.486 -3.395,18.161c-2.263,5.675 -6.79,11.35 -11.316,15.891c-5.658,4.54 -12.448,7.945 -20.369,10.215c-9.053,3.405 -18.106,4.54 -29.422,4.54" style="fill:#fff;"/><path id="Fill-11" d="M207.998,106.917l0,-27.241l-71.291,0l0,-34.052l74.686,0l0,-29.512l-109.766,0l0,129.397l35.08,0l0,-38.592l71.291,0Zm-71.291,66.968l78.081,0l0,-28.376l-78.081,0l0,28.376Z" style="fill:#fff;"/><path id="Fill-13" d="M47.31,173.885l54.317,0l0,-27.241l-54.317,0l0,27.241Z" style="fill:#a0ef6e;"/><path id="Fill-15" d="M5.441,106.917l35.08,0l0,-28.377l-35.08,0l0,28.377Z" style="fill:#a0ef6e;"/><path id="Fill-16" d="M65.416,106.917l142.582,0l0,-28.377l-142.582,0l0,28.377Z" style="fill:#56bc2f;"/></g></g></g></svg>